<mxfile host="app.diagrams.net" modified="2024-03-15T22:41:07.558Z" agent="Mozilla/5.0 (Windows NT 10.0; Win64; x64) AppleWebKit/537.36 (KHTML, like Gecko) Chrome/121.0.0.0 Safari/537.36 OPR/107.0.0.0" etag="RjWdgCpxGNulECkM1Bzm" version="24.0.7" type="google">
  <diagram id="C5RBs43oDa-KdzZeNtuy" name="Page-1">
    <mxGraphModel grid="1" page="1" gridSize="10" guides="1" tooltips="1" connect="1" arrows="1" fold="1" pageScale="1" pageWidth="827" pageHeight="1169" math="0" shadow="0">
      <root>
        <mxCell id="WIyWlLk6GJQsqaUBKTNV-0" />
        <mxCell id="WIyWlLk6GJQsqaUBKTNV-1" parent="WIyWlLk6GJQsqaUBKTNV-0" />
        <mxCell id="Jdm7P_fZjVt-W8_2gLfD-43" style="edgeStyle=orthogonalEdgeStyle;rounded=0;orthogonalLoop=1;jettySize=auto;html=1;exitX=1;exitY=0.5;exitDx=0;exitDy=0;entryX=0.25;entryY=1;entryDx=0;entryDy=0;" edge="1" parent="WIyWlLk6GJQsqaUBKTNV-1" source="Jdm7P_fZjVt-W8_2gLfD-1">
          <mxGeometry relative="1" as="geometry">
            <mxPoint x="380" y="110" as="targetPoint" />
          </mxGeometry>
        </mxCell>
        <mxCell id="Jdm7P_fZjVt-W8_2gLfD-1" value="&amp;lt;&amp;lt;interface&amp;gt;&amp;gt;&lt;div&gt;QuackBeahviour&lt;/div&gt;" style="swimlane;fontStyle=0;childLayout=stackLayout;horizontal=1;startSize=30;fillColor=none;horizontalStack=0;resizeParent=1;resizeParentMax=0;resizeLast=0;collapsible=1;marginBottom=0;html=1;" vertex="1" parent="WIyWlLk6GJQsqaUBKTNV-1">
          <mxGeometry x="150" y="200" width="140" height="56" as="geometry" />
        </mxCell>
        <mxCell id="Jdm7P_fZjVt-W8_2gLfD-2" value="+quack()" style="text;strokeColor=none;fillColor=none;align=left;verticalAlign=top;spacingLeft=4;spacingRight=4;overflow=hidden;rotatable=0;points=[[0,0.5],[1,0.5]];portConstraint=eastwest;whiteSpace=wrap;html=1;" vertex="1" parent="Jdm7P_fZjVt-W8_2gLfD-1">
          <mxGeometry y="30" width="140" height="26" as="geometry" />
        </mxCell>
        <mxCell id="Jdm7P_fZjVt-W8_2gLfD-42" style="edgeStyle=orthogonalEdgeStyle;rounded=0;orthogonalLoop=1;jettySize=auto;html=1;entryX=0.75;entryY=1;entryDx=0;entryDy=0;" edge="1" parent="WIyWlLk6GJQsqaUBKTNV-1" source="Jdm7P_fZjVt-W8_2gLfD-5">
          <mxGeometry relative="1" as="geometry">
            <mxPoint x="420" y="110" as="targetPoint" />
          </mxGeometry>
        </mxCell>
        <mxCell id="Jdm7P_fZjVt-W8_2gLfD-5" value="&amp;lt;&amp;lt;interface&amp;gt;&amp;gt;&lt;div&gt;FlyingBeahviour&lt;/div&gt;" style="swimlane;fontStyle=0;childLayout=stackLayout;horizontal=1;startSize=30;fillColor=none;horizontalStack=0;resizeParent=1;resizeParentMax=0;resizeLast=0;collapsible=1;marginBottom=0;html=1;" vertex="1" parent="WIyWlLk6GJQsqaUBKTNV-1">
          <mxGeometry x="580" y="200" width="140" height="56" as="geometry" />
        </mxCell>
        <mxCell id="Jdm7P_fZjVt-W8_2gLfD-6" value="+fly()" style="text;strokeColor=none;fillColor=none;align=left;verticalAlign=top;spacingLeft=4;spacingRight=4;overflow=hidden;rotatable=0;points=[[0,0.5],[1,0.5]];portConstraint=eastwest;whiteSpace=wrap;html=1;" vertex="1" parent="Jdm7P_fZjVt-W8_2gLfD-5">
          <mxGeometry y="30" width="140" height="26" as="geometry" />
        </mxCell>
        <mxCell id="Jdm7P_fZjVt-W8_2gLfD-20" value="Quack" style="swimlane;fontStyle=0;childLayout=stackLayout;horizontal=1;startSize=26;fillColor=none;horizontalStack=0;resizeParent=1;resizeParentMax=0;resizeLast=0;collapsible=1;marginBottom=0;html=1;" vertex="1" parent="WIyWlLk6GJQsqaUBKTNV-1">
          <mxGeometry y="300" width="140" height="52" as="geometry" />
        </mxCell>
        <mxCell id="Jdm7P_fZjVt-W8_2gLfD-21" value="&amp;nbsp;+quack()" style="text;strokeColor=none;fillColor=none;align=left;verticalAlign=top;spacingLeft=4;spacingRight=4;overflow=hidden;rotatable=0;points=[[0,0.5],[1,0.5]];portConstraint=eastwest;whiteSpace=wrap;html=1;" vertex="1" parent="Jdm7P_fZjVt-W8_2gLfD-20">
          <mxGeometry y="26" width="140" height="26" as="geometry" />
        </mxCell>
        <mxCell id="Jdm7P_fZjVt-W8_2gLfD-24" value="Squeek" style="swimlane;fontStyle=0;childLayout=stackLayout;horizontal=1;startSize=26;fillColor=none;horizontalStack=0;resizeParent=1;resizeParentMax=0;resizeLast=0;collapsible=1;marginBottom=0;html=1;" vertex="1" parent="WIyWlLk6GJQsqaUBKTNV-1">
          <mxGeometry x="150" y="300" width="140" height="52" as="geometry" />
        </mxCell>
        <mxCell id="Jdm7P_fZjVt-W8_2gLfD-25" value="+quack()" style="text;strokeColor=none;fillColor=none;align=left;verticalAlign=top;spacingLeft=4;spacingRight=4;overflow=hidden;rotatable=0;points=[[0,0.5],[1,0.5]];portConstraint=eastwest;whiteSpace=wrap;html=1;" vertex="1" parent="Jdm7P_fZjVt-W8_2gLfD-24">
          <mxGeometry y="26" width="140" height="26" as="geometry" />
        </mxCell>
        <mxCell id="Jdm7P_fZjVt-W8_2gLfD-32" value="FlyingWithWings" style="swimlane;fontStyle=0;childLayout=stackLayout;horizontal=1;startSize=26;fillColor=none;horizontalStack=0;resizeParent=1;resizeParentMax=0;resizeLast=0;collapsible=1;marginBottom=0;html=1;" vertex="1" parent="WIyWlLk6GJQsqaUBKTNV-1">
          <mxGeometry x="510" y="300" width="140" height="50" as="geometry" />
        </mxCell>
        <mxCell id="Jdm7P_fZjVt-W8_2gLfD-33" value="+fly()" style="text;strokeColor=none;fillColor=none;align=left;verticalAlign=top;spacingLeft=4;spacingRight=4;overflow=hidden;rotatable=0;points=[[0,0.5],[1,0.5]];portConstraint=eastwest;whiteSpace=wrap;html=1;" vertex="1" parent="Jdm7P_fZjVt-W8_2gLfD-32">
          <mxGeometry y="26" width="140" height="24" as="geometry" />
        </mxCell>
        <mxCell id="Jdm7P_fZjVt-W8_2gLfD-36" value="FlyingNoWay" style="swimlane;fontStyle=0;childLayout=stackLayout;horizontal=1;startSize=26;fillColor=none;horizontalStack=0;resizeParent=1;resizeParentMax=0;resizeLast=0;collapsible=1;marginBottom=0;html=1;" vertex="1" parent="WIyWlLk6GJQsqaUBKTNV-1">
          <mxGeometry x="670" y="300" width="140" height="52" as="geometry" />
        </mxCell>
        <mxCell id="Jdm7P_fZjVt-W8_2gLfD-37" value="+fly()" style="text;strokeColor=none;fillColor=none;align=left;verticalAlign=top;spacingLeft=4;spacingRight=4;overflow=hidden;rotatable=0;points=[[0,0.5],[1,0.5]];portConstraint=eastwest;whiteSpace=wrap;html=1;" vertex="1" parent="Jdm7P_fZjVt-W8_2gLfD-36">
          <mxGeometry y="26" width="140" height="26" as="geometry" />
        </mxCell>
        <mxCell id="Jdm7P_fZjVt-W8_2gLfD-40" value="MuteQuack" style="swimlane;fontStyle=0;childLayout=stackLayout;horizontal=1;startSize=26;fillColor=none;horizontalStack=0;resizeParent=1;resizeParentMax=0;resizeLast=0;collapsible=1;marginBottom=0;html=1;" vertex="1" parent="WIyWlLk6GJQsqaUBKTNV-1">
          <mxGeometry x="300" y="300" width="140" height="52" as="geometry" />
        </mxCell>
        <mxCell id="Jdm7P_fZjVt-W8_2gLfD-41" value="+quack()" style="text;strokeColor=none;fillColor=none;align=left;verticalAlign=top;spacingLeft=4;spacingRight=4;overflow=hidden;rotatable=0;points=[[0,0.5],[1,0.5]];portConstraint=eastwest;whiteSpace=wrap;html=1;" vertex="1" parent="Jdm7P_fZjVt-W8_2gLfD-40">
          <mxGeometry y="26" width="140" height="26" as="geometry" />
        </mxCell>
        <mxCell id="Jdm7P_fZjVt-W8_2gLfD-54" style="edgeStyle=orthogonalEdgeStyle;rounded=0;orthogonalLoop=1;jettySize=auto;html=1;exitX=0.25;exitY=0;exitDx=0;exitDy=0;" edge="1" parent="WIyWlLk6GJQsqaUBKTNV-1" source="Jdm7P_fZjVt-W8_2gLfD-44" target="Jdm7P_fZjVt-W8_2gLfD-20">
          <mxGeometry relative="1" as="geometry" />
        </mxCell>
        <mxCell id="Jdm7P_fZjVt-W8_2gLfD-44" value="MallardDuck" style="swimlane;fontStyle=0;childLayout=stackLayout;horizontal=1;startSize=26;fillColor=none;horizontalStack=0;resizeParent=1;resizeParentMax=0;resizeLast=0;collapsible=1;marginBottom=0;html=1;" vertex="1" parent="WIyWlLk6GJQsqaUBKTNV-1">
          <mxGeometry x="150" y="510" width="140" height="80" as="geometry" />
        </mxCell>
        <mxCell id="Jdm7P_fZjVt-W8_2gLfD-45" value="+quack()" style="text;strokeColor=none;fillColor=none;align=left;verticalAlign=top;spacingLeft=4;spacingRight=4;overflow=hidden;rotatable=0;points=[[0,0.5],[1,0.5]];portConstraint=eastwest;whiteSpace=wrap;html=1;" vertex="1" parent="Jdm7P_fZjVt-W8_2gLfD-44">
          <mxGeometry y="26" width="140" height="54" as="geometry" />
        </mxCell>
        <mxCell id="Jdm7P_fZjVt-W8_2gLfD-67" style="edgeStyle=orthogonalEdgeStyle;rounded=0;orthogonalLoop=1;jettySize=auto;html=1;entryX=0.231;entryY=0.968;entryDx=0;entryDy=0;entryPerimeter=0;exitX=0.75;exitY=0;exitDx=0;exitDy=0;" edge="1" parent="WIyWlLk6GJQsqaUBKTNV-1" source="Jdm7P_fZjVt-W8_2gLfD-46" target="Jdm7P_fZjVt-W8_2gLfD-37">
          <mxGeometry relative="1" as="geometry">
            <Array as="points">
              <mxPoint x="475" y="450" />
              <mxPoint x="640" y="450" />
              <mxPoint x="640" y="390" />
              <mxPoint x="702" y="390" />
            </Array>
          </mxGeometry>
        </mxCell>
        <mxCell id="Jdm7P_fZjVt-W8_2gLfD-70" style="edgeStyle=orthogonalEdgeStyle;rounded=0;orthogonalLoop=1;jettySize=auto;html=1;exitX=0.25;exitY=0;exitDx=0;exitDy=0;" edge="1" parent="WIyWlLk6GJQsqaUBKTNV-1" source="Jdm7P_fZjVt-W8_2gLfD-46" target="Jdm7P_fZjVt-W8_2gLfD-24">
          <mxGeometry relative="1" as="geometry">
            <Array as="points">
              <mxPoint x="405" y="400" />
              <mxPoint x="220" y="400" />
            </Array>
          </mxGeometry>
        </mxCell>
        <mxCell id="Jdm7P_fZjVt-W8_2gLfD-46" value="RubberDuck" style="swimlane;fontStyle=0;childLayout=stackLayout;horizontal=1;startSize=26;fillColor=none;horizontalStack=0;resizeParent=1;resizeParentMax=0;resizeLast=0;collapsible=1;marginBottom=0;html=1;" vertex="1" parent="WIyWlLk6GJQsqaUBKTNV-1">
          <mxGeometry x="370" y="510" width="140" height="78" as="geometry" />
        </mxCell>
        <mxCell id="Jdm7P_fZjVt-W8_2gLfD-47" value="+quack()" style="text;strokeColor=none;fillColor=none;align=left;verticalAlign=top;spacingLeft=4;spacingRight=4;overflow=hidden;rotatable=0;points=[[0,0.5],[1,0.5]];portConstraint=eastwest;whiteSpace=wrap;html=1;" vertex="1" parent="Jdm7P_fZjVt-W8_2gLfD-46">
          <mxGeometry y="26" width="140" height="24" as="geometry" />
        </mxCell>
        <mxCell id="Jdm7P_fZjVt-W8_2gLfD-62" value="+fly()&lt;div&gt;&lt;br&gt;&lt;/div&gt;" style="text;strokeColor=none;fillColor=none;align=left;verticalAlign=top;spacingLeft=4;spacingRight=4;overflow=hidden;rotatable=0;points=[[0,0.5],[1,0.5]];portConstraint=eastwest;whiteSpace=wrap;html=1;" vertex="1" parent="Jdm7P_fZjVt-W8_2gLfD-46">
          <mxGeometry y="50" width="140" height="28" as="geometry" />
        </mxCell>
        <mxCell id="Jdm7P_fZjVt-W8_2gLfD-66" style="edgeStyle=orthogonalEdgeStyle;rounded=0;orthogonalLoop=1;jettySize=auto;html=1;" edge="1" parent="WIyWlLk6GJQsqaUBKTNV-1" source="Jdm7P_fZjVt-W8_2gLfD-48" target="Jdm7P_fZjVt-W8_2gLfD-36">
          <mxGeometry relative="1" as="geometry">
            <Array as="points">
              <mxPoint x="710" y="431" />
              <mxPoint x="740" y="431" />
            </Array>
          </mxGeometry>
        </mxCell>
        <mxCell id="Jdm7P_fZjVt-W8_2gLfD-71" style="edgeStyle=orthogonalEdgeStyle;rounded=0;orthogonalLoop=1;jettySize=auto;html=1;exitX=0.25;exitY=0;exitDx=0;exitDy=0;" edge="1" parent="WIyWlLk6GJQsqaUBKTNV-1" source="Jdm7P_fZjVt-W8_2gLfD-48" target="Jdm7P_fZjVt-W8_2gLfD-40">
          <mxGeometry relative="1" as="geometry">
            <Array as="points">
              <mxPoint x="634" y="390" />
              <mxPoint x="370" y="390" />
            </Array>
          </mxGeometry>
        </mxCell>
        <mxCell id="Jdm7P_fZjVt-W8_2gLfD-48" value="ModelDuck" style="swimlane;fontStyle=0;childLayout=stackLayout;horizontal=1;startSize=26;fillColor=none;horizontalStack=0;resizeParent=1;resizeParentMax=0;resizeLast=0;collapsible=1;marginBottom=0;html=1;" vertex="1" parent="WIyWlLk6GJQsqaUBKTNV-1">
          <mxGeometry x="599" y="510" width="140" height="78" as="geometry" />
        </mxCell>
        <mxCell id="Jdm7P_fZjVt-W8_2gLfD-49" value="+quack()" style="text;strokeColor=none;fillColor=none;align=left;verticalAlign=top;spacingLeft=4;spacingRight=4;overflow=hidden;rotatable=0;points=[[0,0.5],[1,0.5]];portConstraint=eastwest;whiteSpace=wrap;html=1;" vertex="1" parent="Jdm7P_fZjVt-W8_2gLfD-48">
          <mxGeometry y="26" width="140" height="24" as="geometry" />
        </mxCell>
        <mxCell id="Jdm7P_fZjVt-W8_2gLfD-63" value="+fly()&lt;div&gt;&lt;br&gt;&lt;/div&gt;" style="text;strokeColor=none;fillColor=none;align=left;verticalAlign=top;spacingLeft=4;spacingRight=4;overflow=hidden;rotatable=0;points=[[0,0.5],[1,0.5]];portConstraint=eastwest;whiteSpace=wrap;html=1;" vertex="1" parent="Jdm7P_fZjVt-W8_2gLfD-48">
          <mxGeometry y="50" width="140" height="28" as="geometry" />
        </mxCell>
        <mxCell id="Jdm7P_fZjVt-W8_2gLfD-53" style="edgeStyle=orthogonalEdgeStyle;rounded=0;orthogonalLoop=1;jettySize=auto;html=1;entryX=0.517;entryY=1.014;entryDx=0;entryDy=0;entryPerimeter=0;exitX=0.75;exitY=0;exitDx=0;exitDy=0;" edge="1" parent="WIyWlLk6GJQsqaUBKTNV-1" source="Jdm7P_fZjVt-W8_2gLfD-44" target="Jdm7P_fZjVt-W8_2gLfD-33">
          <mxGeometry relative="1" as="geometry" />
        </mxCell>
        <mxCell id="Jdm7P_fZjVt-W8_2gLfD-60" value="+fly()&lt;div&gt;&lt;br&gt;&lt;/div&gt;" style="text;strokeColor=none;fillColor=none;align=left;verticalAlign=top;spacingLeft=4;spacingRight=4;overflow=hidden;rotatable=0;points=[[0,0.5],[1,0.5]];portConstraint=eastwest;whiteSpace=wrap;html=1;" vertex="1" parent="WIyWlLk6GJQsqaUBKTNV-1">
          <mxGeometry x="150" y="562" width="140" height="28" as="geometry" />
        </mxCell>
        <mxCell id="Jdm7P_fZjVt-W8_2gLfD-77" value="List" style="swimlane;fontStyle=0;childLayout=stackLayout;horizontal=1;startSize=26;fillColor=none;horizontalStack=0;resizeParent=1;resizeParentMax=0;resizeLast=0;collapsible=1;marginBottom=0;html=1;" vertex="1" parent="WIyWlLk6GJQsqaUBKTNV-1">
          <mxGeometry x="300" y="-130" width="200" height="240" as="geometry" />
        </mxCell>
        <mxCell id="Jdm7P_fZjVt-W8_2gLfD-78" value="FlyingBeahavior: flyingBehavior" style="text;strokeColor=none;fillColor=none;align=left;verticalAlign=top;spacingLeft=4;spacingRight=4;overflow=hidden;rotatable=0;points=[[0,0.5],[1,0.5]];portConstraint=eastwest;whiteSpace=wrap;html=1;" vertex="1" parent="Jdm7P_fZjVt-W8_2gLfD-77">
          <mxGeometry y="26" width="200" height="34" as="geometry" />
        </mxCell>
        <mxCell id="Jdm7P_fZjVt-W8_2gLfD-85" value="" style="endArrow=none;html=1;rounded=0;entryX=1;entryY=0;entryDx=0;entryDy=0;" edge="1" parent="Jdm7P_fZjVt-W8_2gLfD-77" target="Jdm7P_fZjVt-W8_2gLfD-83">
          <mxGeometry width="50" height="50" relative="1" as="geometry">
            <mxPoint y="90" as="sourcePoint" />
            <mxPoint x="50" y="40" as="targetPoint" />
          </mxGeometry>
        </mxCell>
        <mxCell id="Jdm7P_fZjVt-W8_2gLfD-79" value="QuackBehavior: quackBehavior&lt;div&gt;&lt;br&gt;&lt;/div&gt;" style="text;strokeColor=none;fillColor=none;align=left;verticalAlign=top;spacingLeft=4;spacingRight=4;overflow=hidden;rotatable=0;points=[[0,0.5],[1,0.5]];portConstraint=eastwest;whiteSpace=wrap;html=1;" vertex="1" parent="Jdm7P_fZjVt-W8_2gLfD-77">
          <mxGeometry y="60" width="200" height="30" as="geometry" />
        </mxCell>
        <mxCell id="Jdm7P_fZjVt-W8_2gLfD-83" value="+swim()" style="text;html=1;align=left;verticalAlign=middle;whiteSpace=wrap;rounded=0;strokeColor=none;fillColor=none;strokeWidth=1;" vertex="1" parent="Jdm7P_fZjVt-W8_2gLfD-77">
          <mxGeometry y="90" width="200" height="30" as="geometry" />
        </mxCell>
        <mxCell id="Jdm7P_fZjVt-W8_2gLfD-84" value="&lt;div&gt;+setFlyingBehavior(FlyingBehaviour)&lt;/div&gt;" style="text;html=1;align=left;verticalAlign=middle;whiteSpace=wrap;rounded=0;" vertex="1" parent="Jdm7P_fZjVt-W8_2gLfD-77">
          <mxGeometry y="120" width="200" height="30" as="geometry" />
        </mxCell>
        <mxCell id="Jdm7P_fZjVt-W8_2gLfD-81" value="+setQuackBehavior(QuackBehavior)" style="text;html=1;align=left;verticalAlign=middle;whiteSpace=wrap;rounded=0;" vertex="1" parent="Jdm7P_fZjVt-W8_2gLfD-77">
          <mxGeometry y="150" width="200" height="30" as="geometry" />
        </mxCell>
        <mxCell id="Jdm7P_fZjVt-W8_2gLfD-87" value="+performFly(quakBehaviour)" style="text;html=1;align=left;verticalAlign=middle;whiteSpace=wrap;rounded=0;" vertex="1" parent="Jdm7P_fZjVt-W8_2gLfD-77">
          <mxGeometry y="180" width="200" height="30" as="geometry" />
        </mxCell>
        <mxCell id="Jdm7P_fZjVt-W8_2gLfD-86" value="+performQuack(flyingBehaviour)" style="text;html=1;align=left;verticalAlign=middle;whiteSpace=wrap;rounded=0;" vertex="1" parent="Jdm7P_fZjVt-W8_2gLfD-77">
          <mxGeometry y="210" width="200" height="30" as="geometry" />
        </mxCell>
      </root>
    </mxGraphModel>
  </diagram>
</mxfile>
